<svg width="360" height="500">
  <rect width="340" height="490" rx="30" ry="30" x="10" y="10" fill="lemonchiffon"/>
  <circle r="100" cx="135" cy="35%"fill="hotpink"/>
  <ellipse rx="70" ry="80" cx="200" cy="90" fill="royalblue"/>
  <polyline points="190,240 185,295 195,315 185,360  195,380 185,400" stroke="brown" fill="none"/>
  <polyline points="140,270 150,300 135,330 150,360 135,390 150,420" stroke="brown" fill="none"/>
    <polyline points="250,290 260,320 245,350 260,380 245,410 260,440" stroke="brown" fill="none"/>
    <ellipse rx="60" ry="80" cx="250" cy="210" fill="coral"/>
    <polygon points="130,280 140,270 150,280" fill="hotpink"/>
    <polygon points="240,300 250,290 260,300" fill="coral"/>
    
    <ellipse rx="70" ry="80" cx="200" cy="170" fill="teal"/>
    <polyline points="200,250 195,300 215,330 195,360 215,390 195,420" stroke="brown" fill="none"/>
    <polygon points="200,250 210,260 190,260" fill="teal"/>
    
</svg>